<svg width="867" height="799" viewBox="0 0 867 799" fill="none" xmlns="http://www.w3.org/2000/svg">
<g opacity="0.5" filter="url(#filter0_d)">
<path d="M743.82 642.554C844.334 630.841 907.106 540.686 994.693 496.229C1025.18 480.763 1059.33 470.59 1085.62 449.413C1145.89 400.984 1147.07 310.161 1124.4 234.01C1113.59 197.688 1097.77 161.248 1069.91 133.486C1048.48 112.136 1021.26 97.1828 994.485 82.6181L525.589 -173.047C473.233 -201.585 413.948 -231.212 358.172 -217.792C319.743 -208.564 291.094 -180.411 264.87 -152.939C232.645 -119.183 199.635 -81.4631 196.632 -34.5195C193.165 19.173 229.695 70.1664 240.595 123.919C258.338 211.051 208.374 301.808 246.305 384.064C264.015 422.458 298.537 452.247 334.412 477.087C402.042 523.928 478.721 544.677 548.334 584.687C607.841 618.885 675.012 650.577 743.82 642.554Z" fill="white"/>
</g>
<g opacity="0.5" filter="url(#filter1_d)">
<path d="M546.326 688.929C546.326 690.128 545.004 691.087 543.338 691.087C541.442 691.267 540.12 690.308 540.12 688.929C540.12 687.729 541.442 686.77 543.108 686.77C544.832 686.59 546.326 687.549 546.326 688.929ZM528.456 686.23C528.053 687.43 529.203 688.809 530.926 689.169C532.42 689.768 534.144 689.169 534.489 687.969C534.834 686.77 533.742 685.391 532.018 684.851C530.524 684.431 528.858 685.031 528.456 686.23ZM553.853 685.211C552.186 685.631 551.037 686.77 551.21 688.149C551.382 689.348 552.876 690.128 554.6 689.708C556.266 689.289 557.415 688.149 557.243 686.95C557.071 685.81 555.519 685.031 553.853 685.211ZM591.661 455.421C511.965 455.421 451 518.565 451 601.738C451 668.24 491.107 725.148 548.394 745.177C555.749 746.556 558.335 741.819 558.335 737.921C558.335 734.203 558.162 713.695 558.162 701.102C558.162 701.102 517.941 710.097 509.494 683.232C509.494 683.232 502.944 665.782 493.52 661.284C493.52 661.284 480.362 651.87 494.44 652.05C494.44 652.05 508.747 653.249 516.619 667.521C529.203 690.668 550.29 684.012 558.507 680.054C559.829 670.459 563.564 663.803 567.701 659.845C535.581 656.127 503.173 651.27 503.173 593.583C503.173 577.092 507.54 568.817 516.734 558.263C515.24 554.365 510.356 538.294 518.228 517.546C530.237 513.648 557.875 533.737 557.875 533.737C569.367 530.379 581.721 528.64 593.96 528.64C606.199 528.64 618.552 530.379 630.044 533.737C630.044 533.737 657.682 513.588 669.692 517.546C677.564 538.354 672.679 554.365 671.185 558.263C680.379 568.877 686.01 577.152 686.01 593.583C686.01 651.45 652.166 656.067 620.046 659.845C625.333 664.583 629.815 673.577 629.815 687.669C629.815 707.878 629.642 732.884 629.642 737.801C629.642 741.699 632.285 746.436 639.583 745.057C697.042 725.148 736 668.24 736 601.738C736 518.565 671.358 455.421 591.661 455.421ZM506.851 662.244C506.104 662.844 506.276 664.223 507.253 665.362C508.172 666.322 509.494 666.741 510.241 665.962C510.988 665.362 510.816 663.983 509.839 662.844C508.919 661.884 507.598 661.464 506.851 662.244ZM500.645 657.387C500.243 658.166 500.818 659.126 501.967 659.725C502.886 660.325 504.035 660.145 504.438 659.306C504.84 658.526 504.265 657.566 503.116 656.967C501.967 656.607 501.047 656.787 500.645 657.387ZM519.262 678.734C518.343 679.514 518.688 681.313 520.009 682.452C521.331 683.832 522.997 684.012 523.744 683.052C524.491 682.272 524.146 680.474 522.997 679.334C521.733 677.955 520.009 677.775 519.262 678.734ZM512.712 669.92C511.792 670.519 511.792 672.078 512.712 673.457C513.631 674.837 515.182 675.436 515.929 674.837C516.849 674.057 516.849 672.498 515.929 671.119C515.125 669.74 513.631 669.14 512.712 669.92Z" fill="#3B3A3E"/>
</g>
<path d="M259.767 386.646C290.557 388.708 297.137 387.961 297.137 394.082C297.137 406.538 255.583 406.575 255.583 395.029C255.589 391.859 257.669 389.175 259.767 386.646ZM277.485 314.007C257.016 314.007 256.09 341.701 277.01 341.701C297.619 341.701 297.112 314.007 277.485 314.007ZM480 228.314V447.528C480 455.456 476.794 463.06 471.088 468.666C465.381 474.272 457.642 477.421 449.571 477.421H226.429C218.358 477.421 210.619 474.272 204.912 468.666C199.206 463.06 196 455.456 196 447.528V228.314C196 220.386 199.206 212.783 204.912 207.177C210.619 201.571 218.358 198.421 226.429 198.421H449.571C457.642 198.421 465.381 201.571 471.088 207.177C476.794 212.783 480 220.386 480 228.314ZM336.098 271.478C336.098 280.502 341.411 285.727 350.59 285.727C359.934 285.727 365.253 280.502 365.253 271.478C365.253 262.454 359.947 257.584 350.603 257.584C341.423 257.584 336.098 262.467 336.098 271.478ZM322.266 299.932H290.855C275.007 295.853 239.152 296.912 239.152 329.047C239.152 340.755 245.11 348.975 253.003 352.78C243.057 361.73 238.346 365.946 238.346 371.924C238.346 376.203 240.115 380.157 245.434 382.362C239.792 387.593 236.559 391.38 236.559 398.504C236.571 411.003 247.684 418.258 276.839 418.258C304.871 418.258 321.131 407.976 321.131 389.779C321.131 366.942 303.235 367.783 261.054 365.254L266.366 356.891C277.143 359.843 313.397 360.77 313.397 330.467C313.397 323.186 310.335 318.123 307.438 314.48L322.26 313.372L322.266 299.932ZM375.731 368.337L367.49 367.229C365.069 366.911 364.91 366.606 364.91 364.059V298.388H331.566L329.797 311.198C339.781 314.655 340.574 314.225 340.574 317.532V364.077C340.574 367.577 340.377 366.93 329.797 368.356V380.849H375.706L375.731 368.337ZM439.429 374.664L435.074 360.733C409.127 370.305 411.079 353.005 411.079 350.314V312.5H435.074V296.675H412.366C410.547 296.675 411.098 298.245 411.098 272.618H395.77C394.001 289.868 388.366 296.831 374.216 298.413V312.5C387.193 312.5 386.781 311.97 386.781 314.082V355.539C386.781 373.425 394.027 381.017 413.197 381.017C422.357 381.017 432.5 378.009 439.429 374.664Z" fill="url(#paint0_linear)"/>
<defs>
<filter id="filter0_d" x="0.0351562" y="-284" width="1232.96" height="1082.42" filterUnits="userSpaceOnUse" color-interpolation-filters="sRGB">
<feFlood flood-opacity="0" result="BackgroundImageFix"/>
<feColorMatrix in="SourceAlpha" type="matrix" values="0 0 0 0 0 0 0 0 0 0 0 0 0 0 0 0 0 0 127 0"/>
<feOffset dy="4"/>
<feGaussianBlur stdDeviation="2"/>
<feColorMatrix type="matrix" values="0 0 0 0 0 0 0 0 0 0 0 0 0 0 0 0 0 0 0.25 0"/>
<feBlend mode="normal" in2="BackgroundImageFix" result="effect1_dropShadow"/>
<feBlend mode="normal" in="SourceGraphic" in2="effect1_dropShadow" result="shape"/>
</filter>
<filter id="filter1_d" x="447" y="455.421" width="293" height="298" filterUnits="userSpaceOnUse" color-interpolation-filters="sRGB">
<feFlood flood-opacity="0" result="BackgroundImageFix"/>
<feColorMatrix in="SourceAlpha" type="matrix" values="0 0 0 0 0 0 0 0 0 0 0 0 0 0 0 0 0 0 127 0"/>
<feOffset dy="4"/>
<feGaussianBlur stdDeviation="2"/>
<feColorMatrix type="matrix" values="0 0 0 0 0 0 0 0 0 0 0 0 0 0 0 0 0 0 0.25 0"/>
<feBlend mode="normal" in2="BackgroundImageFix" result="effect1_dropShadow"/>
<feBlend mode="normal" in="SourceGraphic" in2="effect1_dropShadow" result="shape"/>
</filter>
<linearGradient id="paint0_linear" x1="338" y1="198.421" x2="338" y2="477.421" gradientUnits="userSpaceOnUse">
<stop/>
<stop offset="1"/>
</linearGradient>
</defs>
</svg>
